<svg xmlns="http://www.w3.org/2000/svg" id="Warstwa_2" viewBox="0 0 115.45 46.83" style="&#10;    fill: black;&#10;    color: black;&#10;"><defs><style>.cls-1{fill:#000;}</style></defs><g id="Warstwa_1-2" style="color: black;"><g><g><path class="cls-1" d="M7.5,29.07c-2.53,0-4.41-.54-5.63-1.63C.65,26.35,.04,24.66,.04,22.36l-.04-16.9H8.04v4.24h4.09v5.92h-4.09v5.03c0,.91,.2,1.52,.59,1.85,.39,.32,.94,.48,1.63,.48,.26,0,.54-.02,.83-.07,.29-.05,.51-.1,.68-.14v5.67c-.43,.19-1.04,.35-1.81,.47-.78,.12-1.6,.18-2.46,.18"/><path class="cls-1" d="M14.9,9.69h8.29V28.57H14.9V9.69Zm-.14-5.46c0-.58,.11-1.12,.34-1.63,.23-.51,.54-.96,.93-1.35,.4-.38,.86-.69,1.38-.91,.53-.23,1.09-.34,1.69-.34s1.11,.11,1.61,.34c.5,.23,.95,.53,1.35,.91,.39,.38,.71,.83,.93,1.35,.23,.51,.34,1.06,.34,1.63s-.11,1.15-.34,1.67c-.23,.52-.54,.96-.93,1.33-.39,.37-.84,.66-1.35,.88-.5,.22-1.04,.32-1.61,.32s-1.16-.11-1.69-.32c-.53-.22-.99-.51-1.38-.88-.39-.37-.71-.81-.93-1.33-.23-.51-.34-1.07-.34-1.67"/><path class="cls-1" d="M38.58,28.57v-9.91c0-.96-.12-1.65-.36-2.08-.24-.43-.63-.65-1.18-.65-.41,0-.8,.19-1.17,.57-.37,.39-.56,1.07-.56,2.05v10.01h-8.29V9.69h8.07v2.08h.07c.24-.31,.53-.61,.88-.91,.35-.3,.74-.57,1.18-.83,.44-.25,.94-.45,1.49-.61,.55-.16,1.15-.23,1.79-.23,1.24,0,2.32,.22,3.23,.66,.91,.44,1.63,1.13,2.15,2.07,.62-.77,1.39-1.41,2.3-1.94,.91-.53,2.06-.79,3.45-.79s2.45,.26,3.32,.79c.87,.53,1.57,1.19,2.08,1.97,.51,.79,.87,1.64,1.08,2.56,.2,.92,.3,1.78,.3,2.57v11.48h-8.29v-10.05c0-1.03-.13-1.72-.38-2.07-.25-.35-.64-.52-1.17-.52-.48,0-.89,.22-1.22,.66-.34,.44-.5,1.1-.5,1.96v10.01h-8.29Z"/><path class="cls-1" d="M71.1,15.97c-.91,0-1.65,.31-2.21,.94-.56,.62-.84,1.35-.84,2.19,0,.89,.29,1.64,.86,2.26,.57,.62,1.31,.93,2.22,.93s1.65-.31,2.23-.93c.57-.62,.86-1.38,.86-2.26,0-.83-.29-1.57-.88-2.19-.59-.62-1.34-.94-2.24-.94m10.8,3.09c0,1.63-.29,3.08-.88,4.34-.59,1.27-1.38,2.34-2.37,3.21-.99,.87-2.14,1.54-3.45,1.99-1.31,.45-2.67,.68-4.11,.68s-2.77-.23-4.07-.68c-1.3-.46-2.45-1.12-3.43-1.99-.98-.87-1.76-1.95-2.35-3.21-.59-1.27-.88-2.72-.88-4.34s.29-3.03,.88-4.29c.59-1.26,1.37-2.32,2.35-3.18,.98-.86,2.12-1.51,3.43-1.96,1.3-.44,2.66-.66,4.07-.66s2.8,.22,4.11,.66c1.3,.44,2.45,1.09,3.45,1.96,.99,.86,1.78,1.92,2.37,3.18,.59,1.26,.88,2.68,.88,4.29"/><path class="cls-1" d="M84.02,9.69h8.07v2.08h.07c.48-.69,1.19-1.3,2.13-1.81,.94-.51,2.02-.77,3.24-.77,1.31,0,2.4,.24,3.27,.72,.87,.48,1.56,1.1,2.07,1.85,.51,.75,.87,1.6,1.07,2.53,.2,.93,.3,1.87,.3,2.8v11.49h-8.29v-10.05c0-.96-.15-1.63-.45-2.01-.3-.38-.75-.57-1.34-.57-.55,0-1,.22-1.35,.66-.35,.44-.52,1.08-.52,1.92v10.05h-8.29V9.69Z"/><path class="cls-1" d="M107.02,9.69h8.29V28.57h-8.29V9.69Zm-.14-5.46c0-.58,.11-1.12,.34-1.63,.23-.51,.54-.96,.93-1.35,.4-.38,.86-.69,1.38-.91,.53-.23,1.09-.34,1.69-.34s1.11,.11,1.61,.34c.5,.23,.95,.53,1.35,.91,.39,.38,.71,.83,.93,1.35,.23,.51,.34,1.06,.34,1.63s-.11,1.15-.34,1.67c-.23,.52-.54,.96-.93,1.33-.39,.37-.84,.66-1.35,.88-.5,.22-1.04,.32-1.61,.32s-1.16-.11-1.69-.32c-.53-.22-.99-.51-1.38-.88-.39-.37-.71-.81-.93-1.33-.23-.51-.34-1.07-.34-1.67"/></g><g><path class="cls-1" d="M7.66,42.9c-.07,1.01-.45,1.81-1.12,2.39s-1.56,.87-2.66,.87c-1.2,0-2.15-.41-2.84-1.22-.69-.81-1.04-1.92-1.04-3.34v-.57c0-.9,.16-1.7,.48-2.39,.32-.69,.77-1.22,1.36-1.58,.59-.37,1.28-.55,2.06-.55,1.08,0,1.96,.29,2.62,.87,.66,.58,1.05,1.4,1.15,2.45h-1.94c-.05-.61-.22-1.05-.51-1.32-.29-.27-.73-.41-1.33-.41-.65,0-1.13,.23-1.45,.69s-.49,1.18-.49,2.15v.71c0,1.01,.15,1.76,.46,2.23s.79,.7,1.45,.7c.6,0,1.04-.14,1.34-.41s.46-.7,.51-1.27h1.94Z"/><path class="cls-1" d="M10.99,46.02h-1.94v-9.4h1.94v9.4Z"/><path class="cls-1" d="M13.25,46.83h-1.39l3.46-10.2h1.39l-3.46,10.2Z"/><path class="cls-1" d="M25.1,42.9c-.07,1.01-.45,1.81-1.12,2.39s-1.56,.87-2.66,.87c-1.2,0-2.15-.41-2.84-1.22-.69-.81-1.04-1.92-1.04-3.34v-.57c0-.9,.16-1.7,.48-2.39,.32-.69,.77-1.22,1.36-1.58,.59-.37,1.28-.55,2.06-.55,1.08,0,1.96,.29,2.62,.87,.66,.58,1.05,1.4,1.15,2.45h-1.94c-.05-.61-.22-1.05-.51-1.32-.29-.27-.73-.41-1.33-.41-.65,0-1.13,.23-1.45,.69s-.49,1.18-.49,2.15v.71c0,1.01,.15,1.76,.46,2.23s.79,.7,1.45,.7c.6,0,1.04-.14,1.34-.41s.46-.7,.51-1.27h1.94Z"/><path class="cls-1" d="M26.37,46.02v-9.4h2.89c.83,0,1.56,.19,2.22,.56,.65,.37,1.16,.9,1.53,1.59,.37,.69,.55,1.47,.55,2.34v.43c0,.87-.18,1.65-.54,2.33-.36,.68-.87,1.21-1.52,1.58-.65,.37-1.39,.56-2.21,.57h-2.91Zm1.94-7.83v6.27h.94c.76,0,1.34-.25,1.74-.74,.4-.5,.6-1.2,.61-2.12v-.5c0-.96-.2-1.68-.59-2.17-.4-.49-.97-.74-1.74-.74h-.96Z"/><path class="cls-1" d="M41.72,42.59h-1.54v3.44h-1.94v-9.4h3.49c1.11,0,1.97,.25,2.57,.74,.6,.5,.9,1.19,.9,2.1,0,.64-.14,1.18-.42,1.6-.28,.43-.7,.77-1.26,1.02l2.03,3.84v.09h-2.08l-1.76-3.44Zm-1.54-1.57h1.56c.49,0,.86-.12,1.13-.37,.27-.25,.4-.59,.4-1.02s-.13-.79-.38-1.05c-.25-.25-.64-.38-1.16-.38h-1.56v2.82Z"/><path class="cls-1" d="M52.33,41.95h-3.72v2.52h4.36v1.56h-6.3v-9.4h6.29v1.57h-4.35v2.24h3.72v1.52Z"/><path class="cls-1" d="M56.17,46.02h-1.94v-9.4h1.94v9.4Z"/><path class="cls-1" d="M65.61,46.02h-1.94l-3.77-6.18v6.18h-1.94v-9.4h1.94l3.77,6.2v-6.2h1.93v9.4Z"/><path class="cls-1" d="M70.77,43.7l2.13-7.07h2.16l-3.27,9.4h-2.02l-3.26-9.4h2.15l2.12,7.07Z"/><path class="cls-1" d="M81.59,41.95h-3.72v2.52h4.36v1.56h-6.3v-9.4h6.29v1.57h-4.35v2.24h3.72v1.52Z"/><path class="cls-1" d="M91.01,46.02h-1.94l-3.77-6.18v6.18h-1.94v-9.4h1.94l3.77,6.2v-6.2h1.93v9.4Z"/><path class="cls-1" d="M99.59,38.2h-2.88v7.83h-1.94v-7.83h-2.84v-1.57h7.65v1.57Z"/><path class="cls-1" d="M106.34,41.95h-3.72v2.52h4.36v1.56h-6.3v-9.4h6.29v1.57h-4.35v2.24h3.72v1.52Z"/><path class="cls-1" d="M108.13,46.02v-9.4h2.89c.83,0,1.56,.19,2.22,.56,.65,.37,1.16,.9,1.53,1.59,.37,.69,.55,1.47,.55,2.34v.43c0,.87-.18,1.65-.54,2.33-.36,.68-.87,1.21-1.52,1.58-.65,.37-1.39,.56-2.21,.57h-2.91Zm1.94-7.83v6.27h.94c.76,0,1.34-.25,1.74-.74,.4-.5,.6-1.2,.61-2.12v-.5c0-.96-.2-1.68-.59-2.17-.4-.49-.97-.74-1.74-.74h-.96Z"/></g></g></g></svg>