<svg
  version="1.1"
  id="_x31_0"
  xmlns="http://www.w3.org/2000/svg"
  xmlns:xlink="http://www.w3.org/1999/xlink"
  x="0px"
  y="0px"
  viewBox="0 0 512 512"
  xml:space="preserve"
  style="fill: #888"
>
  <g>
    <path
      class="st0"
      d="M340.521,252.656c2.238,0.015,4.502,0.874,6.212,2.585l3.112,3.112l16.198,16.202l16.21,16.198L509.65,163.35
      l-16.198-16.198l6.774-6.781c3.22-3.22,3.212-8.422,0.008-11.63L469.909,98.42l-0.066-0.07l0,0l-0.113-0.108
      c-5.391,5.387-14.146,5.387-19.538,0c-2.698-2.702-4.041-6.228-4.041-9.77c0-3.538,1.354-7.078,4.049-9.765l-33.805-33.8
      c-5.387,5.391-14.134,5.395-19.538,0c-2.698-2.698-4.041-6.231-4.041-9.769c0-3.538,1.355-7.079,4.041-9.766L373.892,2.41
      c-3.198-3.208-8.403-3.22-11.623,0L4.748,359.932c-3.205,3.197-3.194,8.41,0.007,11.607l23.026,23.029
      c2.519-2.032,5.585-3.054,8.666-3.054c3.534,0,7.067,1.343,9.765,4.041c5.043,5.05,5.372,13.02,0.987,18.43l33.916,33.913
      c2.52-2.028,5.586-3.05,8.662-3.05c3.542,0,7.071,1.342,9.769,4.04c5.028,5.036,5.365,13.021,0.987,18.431l30.561,30.561
      c3.208,3.205,8.41,3.22,11.618,0.011l2.082-2.09L161,512l208.831-208.824l-16.205-16.206l-16.198-16.198l-3.116-3.115
      c-3.433-3.434-3.433-8.995,0-12.432C336.032,253.519,338.268,252.656,340.521,252.656z M351.401,300.92l-17.726,17.726
      l-5.868-5.856l-5.856-5.86l17.727-17.726l5.859,5.856L351.401,300.92z M149.284,479.605l16.294-16.294l5.856,5.86l5.86,5.856
      L161,491.321l-5.856-5.86L149.284,479.605z M175.061,395.71l-43.426,43.426l-69.814-69.807l43.434-43.434L175.061,395.71z
       M290.14,338.749l5.856,5.852l5.86,5.864l-18.017,18.017l-5.856-5.868l-5.86-5.855L290.14,338.749z M265.23,363.651l5.856,5.86
      l5.868,5.856l-18.029,18.032l-5.859-5.86l-5.86-5.86L265.23,363.651z M215.403,413.482l5.86,5.852l5.856,5.868l-18.013,18.017
      l-5.86-5.868l-5.86-5.859L215.403,413.482z M202.208,450.112l-18.028,18.029l-5.86-5.864l-5.856-5.86l18.029-18.028l5.859,5.864
      L202.208,450.112z M240.312,388.573l5.86,5.86l5.856,5.859l-18.013,18.017l-5.867-5.859l-5.853-5.86L240.312,388.573z
       M257.981,312.79l-69.621-69.629l-0.186-0.186l43.414-43.414l69.814,69.814L257.981,312.79z M124.99,306.164l43.434-43.434
      l69.621,69.621l0.19,0.19l-43.36,43.356l-0.074,0.074l-69.621-69.617L124.99,306.164z M297.033,331.848l18.029-18.024l5.86,5.859
      l5.859,5.86l-18.032,18.028l-5.856-5.867L297.033,331.848z M450.48,201.841l-5.86-5.863l-5.856-5.86l16.658-16.658l5.86,5.856
      l5.863,5.86L450.48,201.841z M368.117,260.764l16.658-16.658l5.86,5.855l5.856,5.868l-16.654,16.654l-5.864-5.86L368.117,260.764z
       M420.039,232.29l-16.654,16.646l-5.856-5.867l-5.86-5.856l16.647-16.646l5.859,5.856L420.039,232.29z M437.727,202.87l5.859,5.864
      l-16.654,16.654l-5.864-5.86l-5.86-5.856l16.662-16.662L437.727,202.87z M474.035,178.286l-5.86-5.856l-5.859-5.867l14.939-14.936
      l5.856,5.86l5.86,5.863L474.035,178.286z M444.314,126.458l-43.426,43.434l-69.814-69.814l43.434-43.426l69.621,69.618
      L444.314,126.458z M272.139,159.015l43.426-43.426l69.81,69.807l-43.356,43.356l-0.078,0.078l-69.621-69.629L272.139,159.015z"
    ></path>
    <polygon
      class="st0"
      points="131.109,428.047 147.543,411.614 134.883,366.082 105.96,337.158 105.897,337.096 105.897,337.096 
105.785,336.984 72.918,369.855 	"
    ></polygon>
    <polygon
      class="st0"
      points="210.708,348.448 198.048,302.917 168.95,273.819 136.087,306.69 194.274,364.882 	"
    ></polygon>
    <polygon
      class="st0"
      points="257.447,301.702 273.888,285.268 261.216,239.752 232.115,210.654 199.26,243.51 	"
    ></polygon>
    <polygon
      class="st0"
      points="341.416,217.741 357.849,201.299 345.189,155.768 316.099,126.678 283.41,159.367 283.34,159.437 
283.34,159.437 283.224,159.55 	"
    ></polygon>
    <polygon
      class="st0"
      points="342.348,100.417 342.275,100.494 342.275,100.494 342.163,100.607 400.354,158.794 416.792,142.361 
404.128,96.833 375.146,67.851 375.146,67.851 375.146,67.851 375.038,67.739 	"
    ></polygon>
  </g>
</svg>